<?xml version="1.0" encoding="UTF-8"?>
<svg version="1.1" xmlns="http://www.w3.org/2000/svg" width="647" height="386">
<path d="M0 0 C1.41484379 -0.00807831 1.41484379 -0.00807831 2.85827029 -0.01631981 C5.99708977 -0.03054832 9.13548447 -0.02350822 12.27432251 -0.01637268 C14.53363889 -0.02207893 16.79295238 -0.02904417 19.05226135 -0.03717041 C25.17421426 -0.0550892 31.29602373 -0.05393572 37.41799498 -0.04822803 C42.53471105 -0.04513418 47.65139966 -0.05123086 52.76811182 -0.05726677 C65.53207537 -0.0721084 78.29593767 -0.0685021 91.05989499 -0.05640347 C102.12588252 -0.04647419 113.19170276 -0.05940932 124.25766449 -0.08333766 C135.64063945 -0.10776461 147.02351461 -0.11692855 158.40652335 -0.11068493 C164.78902641 -0.1073183 171.1713913 -0.10971104 177.55387497 -0.12693596 C183.55729334 -0.1424312 189.560393 -0.13842056 195.5637989 -0.11963081 C197.76193876 -0.11595205 199.96010236 -0.11903251 202.15822029 -0.1295166 C223.49907212 -0.2235004 223.49907212 -0.2235004 232.22207642 4.38768005 C232.22207642 5.04768005 232.22207642 5.70768005 232.22207642 6.38768005 C232.82020142 6.65580505 233.41832642 6.92393005 234.03457642 7.20018005 C236.22055495 8.38685412 237.63540235 9.48367118 239.22207642 11.38768005 C239.22207642 12.04768005 239.22207642 12.70768005 239.22207642 13.38768005 C239.81665649 13.65105164 240.41123657 13.91442322 241.02383423 14.18577576 C243.32107953 15.4418107 244.6532893 16.67884193 246.39395142 18.6181488 C246.97201538 19.25333435 247.55007935 19.8885199 248.1456604 20.54295349 C249.04973633 21.54890564 249.04973633 21.54890564 249.97207642 22.57518005 C260.44724883 34.87819848 260.44724883 34.87819848 274.93862808 40.66589832 C278.3105283 40.7736039 281.67096792 40.78547954 285.04457092 40.76622009 C286.98680474 40.77301529 286.98680474 40.77301529 288.96827561 40.77994776 C292.55139332 40.79213493 296.1342738 40.7858052 299.71739113 40.77644277 C303.58591363 40.769637 307.4543929 40.78018378 311.32290649 40.78872681 C318.02354694 40.80128569 324.72412286 40.80326884 331.42477226 40.79837036 C341.1214523 40.79155928 350.81803514 40.8040851 360.5146978 40.82187754 C376.25903133 40.85052029 392.00335437 40.86803844 407.74771118 40.87644958 C409.16066301 40.87721035 409.16066301 40.87721035 410.60215933 40.87798649 C417.28796489 40.8815135 423.97377062 40.88464287 430.65957642 40.88768005 C438.29507462 40.8911489 445.93057267 40.89479806 453.56607056 40.89891052 C454.50658586 40.89941314 455.44710117 40.89991575 456.41611695 40.9004336 C472.10096942 40.90917905 487.78578581 40.92961778 503.47061402 40.95839262 C513.1422636 40.97556767 522.81381105 40.98215964 532.48547388 40.97508657 C539.11250291 40.97090603 545.73946755 40.97726094 552.36648159 40.9918853 C556.1892529 40.9999398 560.01186451 41.00306026 563.83463478 40.99306297 C567.98075475 40.98231062 572.12648981 40.99465169 576.27259827 41.00914001 C577.47795131 41.00224608 578.68330435 40.99535214 579.92518324 40.9882493 C588.99597417 41.05008252 595.84005906 42.42747234 602.68301392 48.70799255 C608.5100486 55.06744665 609.37115793 61.4955565 609.36924744 69.81178284 C609.37292412 70.66977443 609.37660081 71.52776602 609.38038892 72.41175735 C609.39141767 75.29192122 609.39526824 78.17204901 609.39907837 81.05223083 C609.40534366 83.11538813 609.41199052 85.17854429 609.41899109 87.24169922 C609.44002721 94.02212234 609.45039352 100.80254568 609.46035767 107.58299255 C609.46440548 109.91806424 609.46852241 112.2531358 609.47270775 114.58820724 C609.49175896 125.5595284 609.50598977 136.53084284 609.51431972 147.50217736 C609.52409023 160.16152968 609.55040534 172.82070707 609.59082061 185.47999775 C609.62099494 195.26784097 609.63578988 205.05563408 609.63910073 214.84352291 C609.64144983 220.68786116 609.65039228 226.53201251 609.6755619 232.37630081 C609.69887028 237.8773156 609.70306458 243.37802079 609.69280052 248.87907219 C609.69230572 250.89380741 609.69860974 252.90855801 609.71235657 254.92324638 C609.85293592 276.75443415 609.85293592 276.75443415 603.03848267 285.04393005 C602.2946936 285.65236755 601.55090454 286.26080505 600.78457642 286.88768005 C600.04336548 287.51674255 599.30215454 288.14580505 598.53848267 288.79393005 C594.28248372 291.72217216 590.67556277 292.63759366 585.53792095 292.64494896 C583.82700804 292.6546223 583.82700804 292.6546223 582.08153123 292.66449106 C580.83310325 292.66139385 579.58467527 292.65829665 578.29841614 292.65510559 C576.95511489 292.65884273 575.61181581 292.6634445 574.26852018 292.66883624 C570.57832381 292.6810739 566.88821806 292.68080488 563.19800603 292.67844748 C559.21765772 292.67803951 555.23733854 292.68907661 551.25700378 292.69856262 C543.4591047 292.71517783 535.66123585 292.72067241 527.86332055 292.72178738 C521.52483071 292.72273761 515.18635084 292.72684668 508.84786415 292.73318863 C490.87789087 292.75080253 472.90794149 292.76002728 454.93795951 292.75852768 C453.96912776 292.75844777 453.00029601 292.75836786 452.00210571 292.75828552 C450.54708408 292.75816288 450.54708408 292.75816288 449.06266806 292.75803776 C433.34175695 292.75722484 417.62094164 292.77636369 401.90005823 292.80456226 C385.75875734 292.83328651 369.61750318 292.8471028 353.47617608 292.8453747 C344.41373004 292.84471064 335.35138444 292.85021013 326.28896141 292.8717308 C318.57298618 292.88993658 310.85715691 292.89429494 303.14116951 292.88071196 C299.20494854 292.87417919 295.26900764 292.874076 291.33281326 292.89141846 C287.72718196 292.90714099 284.12205298 292.90429443 280.51643399 292.88685019 C278.59889162 292.8823267 276.68133373 292.89744416 274.76385182 292.91332948 C266.67191145 292.84852253 261.2140888 291.83563623 254.92910767 286.4072113 C247.15766339 277.35387931 239.94713059 267.83309791 232.89395142 258.2118988 C231.91168579 256.90672302 231.91168579 256.90672302 230.90957642 255.57518005 C230.3771936 254.84685974 229.84481079 254.11853943 229.29629517 253.3681488 C223.73578845 248.05896442 217.53058988 246.76123633 210.07046509 246.63938904 C209.10377742 246.61060134 208.13708975 246.58181364 207.14110851 246.55215359 C189.40219957 246.11642116 171.64169863 246.30215704 153.89937615 246.35214925 C148.39311398 246.36601356 142.88684427 246.37233312 137.38056946 246.3789978 C118.69140283 246.40297243 100.00226942 246.43912666 81.31314087 246.48362732 C70.94953531 246.50822417 60.58594218 246.52555261 50.22231168 246.53518671 C43.69166276 246.54169458 37.16111823 246.55717527 30.6305052 246.57950413 C26.5666369 246.59128484 22.50279344 246.59460433 18.43890953 246.59560204 C16.56529388 246.59773736 14.69167828 246.60328674 12.81808472 246.61263275 C-14.58527005 246.74397852 -14.58527005 246.74397852 -21.77792358 240.38768005 C-28.290578 233.66761626 -31.08226235 229.52256812 -31.04534912 219.98808289 C-31.04988023 219.13276372 -31.05441135 218.27744455 -31.05907977 217.39620662 C-31.07175763 214.52514572 -31.0701012 211.65427369 -31.06845093 208.78318787 C-31.07443413 206.7266363 -31.0812392 204.67008699 -31.08880615 202.61354065 C-31.10649629 197.0224976 -31.11116285 191.43151575 -31.11243773 185.84044743 C-31.11433583 181.17354775 -31.12169249 176.50666236 -31.12878191 171.83976817 C-31.14507556 160.82773666 -31.14995004 149.81573786 -31.14852905 138.80369568 C-31.14732792 127.4452195 -31.16842187 116.08693344 -31.20001638 104.72850537 C-31.22617373 94.97720357 -31.23689654 85.22596387 -31.23561823 75.47462726 C-31.23510837 69.65048466 -31.24080521 63.82651091 -31.26197433 58.00240326 C-31.28134699 52.52271976 -31.28148763 47.04336629 -31.26694107 41.56367111 C-31.26485056 39.55455162 -31.26956828 37.54541154 -31.28166199 35.53632736 C-31.29712635 32.7889021 -31.28779842 30.04261305 -31.2723999 27.29521179 C-31.28268703 26.50414386 -31.29297415 25.71307593 -31.30357301 24.89803624 C-31.22234012 18.31843893 -29.14659233 13.25341419 -24.95370483 8.1806488 C-24.33882202 7.65084412 -23.72393921 7.12103943 -23.09042358 6.57518005 C-22.1874353 5.76113708 -22.1874353 5.76113708 -21.26620483 4.9306488 C-14.59150884 0.79170859 -7.70720367 -0.0535443 0 0 Z " fill="#AEAEAE" transform="translate(30.777923583984375,93.61231994628906)"/>
<path d="M0 0 C1.41484379 -0.00807831 1.41484379 -0.00807831 2.85827029 -0.01631981 C5.99708977 -0.03054832 9.13548447 -0.02350822 12.27432251 -0.01637268 C14.53363889 -0.02207893 16.79295238 -0.02904417 19.05226135 -0.03717041 C25.17421426 -0.0550892 31.29602373 -0.05393572 37.41799498 -0.04822803 C42.53471105 -0.04513418 47.65139966 -0.05123086 52.76811182 -0.05726677 C65.53207537 -0.0721084 78.29593767 -0.0685021 91.05989499 -0.05640347 C102.12588252 -0.04647419 113.19170276 -0.05940932 124.25766449 -0.08333766 C135.64063945 -0.10776461 147.02351461 -0.11692855 158.40652335 -0.11068493 C164.78902641 -0.1073183 171.1713913 -0.10971104 177.55387497 -0.12693596 C183.55729334 -0.1424312 189.560393 -0.13842056 195.5637989 -0.11963081 C197.76193876 -0.11595205 199.96010236 -0.11903251 202.15822029 -0.1295166 C223.49907212 -0.2235004 223.49907212 -0.2235004 232.22207642 4.38768005 C232.22207642 5.04768005 232.22207642 5.70768005 232.22207642 6.38768005 C232.82020142 6.65580505 233.41832642 6.92393005 234.03457642 7.20018005 C236.22055495 8.38685412 237.63540235 9.48367118 239.22207642 11.38768005 C239.22207642 12.04768005 239.22207642 12.70768005 239.22207642 13.38768005 C239.81665649 13.65105164 240.41123657 13.91442322 241.02383423 14.18577576 C243.32107953 15.4418107 244.6532893 16.67884193 246.39395142 18.6181488 C246.97201538 19.25333435 247.55007935 19.8885199 248.1456604 20.54295349 C249.04973633 21.54890564 249.04973633 21.54890564 249.97207642 22.57518005 C260.44724883 34.87819848 260.44724883 34.87819848 274.93862808 40.66589832 C278.3105283 40.7736039 281.67096792 40.78547954 285.04457092 40.76622009 C286.98680474 40.77301529 286.98680474 40.77301529 288.96827561 40.77994776 C292.55139332 40.79213493 296.1342738 40.7858052 299.71739113 40.77644277 C303.58591363 40.769637 307.4543929 40.78018378 311.32290649 40.78872681 C318.02354694 40.80128569 324.72412286 40.80326884 331.42477226 40.79837036 C341.1214523 40.79155928 350.81803514 40.8040851 360.5146978 40.82187754 C376.25903133 40.85052029 392.00335437 40.86803844 407.74771118 40.87644958 C409.16066301 40.87721035 409.16066301 40.87721035 410.60215933 40.87798649 C417.28796489 40.8815135 423.97377062 40.88464287 430.65957642 40.88768005 C438.29507462 40.8911489 445.93057267 40.89479806 453.56607056 40.89891052 C454.50658586 40.89941314 455.44710117 40.89991575 456.41611695 40.9004336 C472.10096942 40.90917905 487.78578581 40.92961778 503.47061402 40.95839262 C513.1422636 40.97556767 522.81381105 40.98215964 532.48547388 40.97508657 C539.11250291 40.97090603 545.73946755 40.97726094 552.36648159 40.9918853 C556.1892529 40.9999398 560.01186451 41.00306026 563.83463478 40.99306297 C567.98075475 40.98231062 572.12648981 40.99465169 576.27259827 41.00914001 C577.47795131 41.00224608 578.68330435 40.99535214 579.92518324 40.9882493 C588.99597417 41.05008252 595.84005906 42.42747234 602.68301392 48.70799255 C608.53472036 55.09437269 609.37238043 61.52976284 609.34233093 69.8790741 C609.34318536 70.74412134 609.34403978 71.60916859 609.3449201 72.50042939 C609.34656944 75.40394796 609.34106242 78.30740898 609.33560181 81.21092224 C609.33531979 83.29030353 609.33547795 85.36968493 609.33604431 87.44906616 C609.33633173 93.09948423 609.33044399 98.74988116 609.32347035 104.4002943 C609.31722754 110.30333538 609.31663228 116.20637691 609.31544495 122.10942078 C609.31233438 133.29011313 609.30412466 144.47079572 609.29409546 155.65148377 C609.28292583 168.37926536 609.27742172 181.1070474 609.27240002 193.83483267 C609.26194184 220.01912054 609.24434768 246.20339975 609.22207642 272.38768005 C608.89207642 272.38768005 608.56207642 272.38768005 608.22207642 272.38768005 C608.22060986 271.36946167 608.2191433 270.35124329 608.21763229 269.3021698 C608.18103121 244.52237853 608.12157355 219.74272236 608.03817368 194.96304321 C607.99837074 182.97974931 607.96598457 170.9965212 607.95108032 159.01316833 C607.93807037 148.56801886 607.91112232 138.12301408 607.86746335 127.67794609 C607.84483396 122.14775773 607.82916663 116.61774792 607.83019257 111.08750916 C607.83093829 105.88031665 607.81302228 100.67351908 607.78090858 95.46642876 C607.77240282 93.55731444 607.77066425 91.64815586 607.77627373 89.73903084 C607.78292496 87.12706965 607.76496675 84.5163609 607.74105835 81.90452576 C607.74881877 81.15352978 607.75657918 80.4025338 607.76457477 79.62878036 C607.6625074 73.30618926 605.58457397 68.24029948 601.54629517 63.36424255 C601.00617798 62.91822693 600.46606079 62.4722113 599.90957642 62.01268005 C599.3771936 61.55119568 598.84481079 61.0897113 598.29629517 60.61424255 C591.43976298 56.55972069 583.93587356 57.10921685 576.22322083 57.14285278 C574.90939165 57.14058821 573.59556247 57.13832364 572.24192029 57.13599044 C568.60569593 57.12990504 564.96958122 57.1361201 561.33336484 57.14430106 C557.40755708 57.15090184 553.48176301 57.14587851 549.55595398 57.14207458 C542.75547007 57.13685614 535.95501468 57.13834203 529.15453148 57.14385033 C518.40182039 57.15207183 507.64917059 57.14082711 496.89646912 57.12664795 C493.21542277 57.12204708 489.53437626 57.11759669 485.85332966 57.11320972 C484.93345553 57.11211158 484.01358141 57.11101344 483.06583231 57.10988202 C472.60058209 57.09771371 462.13532991 57.09015755 451.67007446 57.08421326 C450.23547995 57.08339117 450.23547995 57.08339117 448.77190373 57.08255247 C433.27236821 57.0740927 417.77285006 57.07743189 402.27331444 57.08336761 C386.35113178 57.08898721 370.42903653 57.07544104 354.50688058 57.04581481 C344.69084726 57.02828569 334.87506678 57.02662642 325.05903468 57.04545996 C318.33056727 57.05707558 311.60227032 57.05060196 304.87382504 57.02999076 C300.99399928 57.01868404 297.11461299 57.01546435 293.23480606 57.03416634 C289.02348182 57.05427816 284.81319654 57.0356391 280.60188293 57.01345825 C279.38290084 57.02549575 278.16391874 57.03753325 276.90799779 57.04993552 C267.90433453 56.95330579 261.24197717 54.92048977 254.41738892 48.9228363 C253.73418579 48.10685974 253.05098267 47.29088318 252.34707642 46.45018005 C251.61488892 45.58393005 250.88270142 44.71768005 250.12832642 43.82518005 C247.989406 41.09016707 246.08035439 38.31804148 244.22207642 35.38768005 C243.2234999 34.38625859 242.22327617 33.38647885 241.22207642 32.38768005 C239.9710185 30.8848032 238.74280744 29.36269835 237.53457642 27.82518005 C236.91195923 27.04014099 236.28934204 26.25510193 235.64785767 25.4462738 C234.22207642 23.38768005 234.22207642 23.38768005 234.22207642 21.38768005 C233.56207642 21.38768005 232.90207642 21.38768005 232.22207642 21.38768005 C231.83020142 20.95455505 231.43832642 20.52143005 231.03457642 20.07518005 C225.66397194 15.07496209 219.44153096 14.95453161 212.50588989 15.00672913 C211.54521307 15.00204915 210.58453626 14.99736918 209.59474802 14.99254739 C206.38509604 14.98060938 203.17587197 14.99005014 199.96621704 14.99949646 C197.66129813 14.99543024 195.35638117 14.99008808 193.0514679 14.98356628 C186.79743099 14.96989299 180.54354259 14.9751915 174.2895031 14.98470354 C167.74378942 14.9923 161.19808844 14.98525456 154.65237427 14.98054504 C142.95608146 14.97413834 131.25985112 14.9840596 119.56356913 14.99932306 C108.96516701 15.01272576 98.36686348 15.01039751 87.76846313 14.99656677 C75.4518735 14.98050128 63.13534669 14.97454201 50.818748 14.98340356 C44.30223187 14.98808011 37.78578361 14.98870535 31.26927185 14.9787941 C25.14281773 14.97012695 19.01654975 14.97614201 12.89011574 14.99347687 C10.64192323 14.99744301 8.39371506 14.9963055 6.14552879 14.98968887 C3.07622881 14.98148861 0.00752497 14.9917771 -3.06173706 15.00672913 C-4.39554924 14.99669088 -4.39554924 14.99669088 -5.75630713 14.98644984 C-11.21235995 15.03798699 -14.89344662 15.94770697 -19.77792358 18.38768005 C-20.76792358 18.71768005 -21.75792358 19.04768005 -22.77792358 19.38768005 C-23.80443732 21.10287752 -23.80443732 21.10287752 -24.77792358 23.38768005 C-25.75921483 25.13853165 -26.76858617 26.87163138 -27.77792358 28.60643005 C-28.8432855 30.50410596 -29.81851925 32.43460696 -30.77792358 34.38768005 C-31.59283904 15.7351708 -31.59283904 15.7351708 -25.04745483 8.46580505 C-17.8194078 1.48302109 -9.79946215 -0.06807985 0 0 Z " fill="#E8D7D7" transform="translate(30.777923583984375,93.61231994628906)"/>
<path d="M0 0 C0.79664063 0.07863281 1.59328125 0.15726563 2.4140625 0.23828125 C3.38472656 0.46064453 3.38472656 0.46064453 4.375 0.6875 C4.705 1.3475 5.035 2.0075 5.375 2.6875 C4.79492188 2.58050781 4.21484375 2.47351563 3.6171875 2.36328125 C-1.70395589 1.54667014 -5.04513074 1.41616482 -9.625 4.6875 C-12.01112004 7.55084405 -12.5822247 9.35751914 -13.0625 13.0625 C-12.51856006 17.56943095 -11.08935536 19.91395585 -8.625 23.6875 C-11.02197994 22.72870802 -12.36103315 22.11447796 -13.73828125 19.88671875 C-15.2281925 16.1914763 -15.08059736 12.6056373 -14.625 8.6875 C-13.00022535 4.95051831 -11.06878693 2.83986683 -7.625 0.6875 C-4.59335415 -0.32304862 -3.10749249 -0.3390912 0 0 Z " fill="#9D9D9D" transform="translate(613.625,155.3125)"/>
</svg>
