<?xml version="1.0" encoding="utf-8"?>
<!-- Generator: Adobe Illustrator 26.0.1, SVG Export Plug-In . SVG Version: 6.00 Build 0)  -->
<svg version="1.1" id="Layer_1" xmlns="http://www.w3.org/2000/svg" xmlns:xlink="http://www.w3.org/1999/xlink" x="0px" y="0px"
	 viewBox="0 0 3000 1080" style="enable-background:new 0 0 3000 1080;" xml:space="preserve">
<style type="text/css">
	.st0{fill:#C0C0C0;}
</style>
<g>
	<path class="st0" d="M759.93,771.45H509.9L348.55,630.86c-55.12-47.93-80.68-71.09-99.05-89.46c0.8,24.76,2.4,51.12,2.4,76.68
		v153.37H85.74v-534.4h166.15v123.81c0,32.75-1.6,65.5-3.2,93.46c20.77-19.17,49.53-46.33,98.25-87.07l154.17-130.2h239.64
		L536.26,390.43c-71.09,53.52-103.84,77.48-138.19,98.25c30.35,20.77,71.89,50.32,140.59,106.24L759.93,771.45z"/>
	<path class="st0" d="M1488.42,771.45H1238.4l-161.36-140.59c-55.12-47.93-80.68-71.09-99.05-89.46c0.8,24.76,2.4,51.12,2.4,76.68
		v153.37H814.24v-534.4h166.15v123.81c0,32.75-1.6,65.5-3.2,93.46c20.77-19.17,49.53-46.33,98.25-87.07l154.17-130.2h239.64
		l-204.49,153.37c-71.09,53.52-103.84,77.48-138.19,98.25c30.35,20.77,71.89,50.32,140.59,106.24L1488.42,771.45z"/>
	<path class="st0" d="M2300.79,771.45h-221.27L1960.5,630.06h-254.02v141.39h-165.35V498.26h464.9c51.12,0,91.06-23.17,91.06-59.91
		c0-41.54-34.35-62.31-91.06-62.31h-464.9l107.84-138.99h343.48c121.42,0,274.79,38.34,274.79,190.91
		c0,83.07-51.92,151.77-139.79,169.35c18.37,13.58,38.34,32.75,75.09,70.29L2300.79,771.45z"/>
	<path class="st0" d="M2959,237.06l-107.04,138.99h-325.91v69.5h402.59l-100.65,130.2h-301.95v195.71H2359.9v-534.4H2959z"/>
</g>
</svg>
