<?xml version="1.0" encoding="UTF-8"?>
<svg version="1.1" xmlns="http://www.w3.org/2000/svg" width="726" height="343">
<path d="M0 0 C2.63904426 -0.00486053 5.27798758 -0.01207205 7.91700745 -0.02212524 C14.31909213 -0.04101918 20.72072325 -0.027976 27.12277403 -0.00359936 C34.58602804 0.02375162 42.04917614 0.0203554 49.51246753 0.01613398 C62.83050728 0.00976666 76.14833246 0.033021 89.46630859 0.07226562 C102.37685676 0.1102994 115.28715372 0.12443123 128.19775391 0.11328125 C142.27746244 0.10115746 156.35706078 0.10153242 170.43676019 0.12425292 C171.93869797 0.12666737 173.44063576 0.12907934 174.94257355 0.1314888 C175.68145366 0.13269588 176.42033377 0.13390295 177.18160419 0.13514661 C182.37925835 0.14289314 187.57687137 0.14212239 192.7745285 0.13831711 C199.77113875 0.1336226 206.76742132 0.15077387 213.76395988 0.1824379 C216.33101252 0.19092047 218.89809785 0.19262677 221.46515846 0.1870575 C224.96969943 0.18060784 228.47327995 0.19879066 231.97772217 0.22323608 C232.99289909 0.21567744 234.00807601 0.20811879 235.05401587 0.20033109 C246.61551718 0.34295306 253.07484393 5.82594499 261.07128906 13.74462891 C268.07128906 21.06904958 268.07128906 21.06904958 268.07128906 23.74462891 C268.87566406 24.08494141 268.87566406 24.08494141 269.69628906 24.43212891 C274.77734712 27.24008204 278.01123799 30.56382727 281.32128906 35.24462891 C285.19643444 40.29916636 289.00937248 42.83752692 295.07128906 44.74462891 C297.36486568 45.02997865 299.67011116 45.2290813 301.97757816 45.36142254 C302.63214339 45.39903845 303.28670862 45.43665436 303.96110917 45.47541014 C310.9953039 45.84842321 318.02776731 45.88534993 325.07066345 45.87593079 C326.51746364 45.87763839 327.96426336 45.87979053 329.4110623 45.88234204 C332.52595506 45.88689321 335.64082807 45.88836902 338.75572395 45.88737679 C343.82621145 45.88576848 348.89667967 45.89101872 353.96716309 45.89700317 C361.32680696 45.90507926 368.68644742 45.91004695 376.04609489 45.91329384 C387.68101825 45.91881392 399.31591268 45.93573253 410.95082092 45.95463562 C414.93815131 45.96099054 418.92548178 45.96729914 422.91281223 45.97361279 C423.90895388 45.97519655 424.90509553 45.97678031 425.93142329 45.97841207 C437.24505162 45.99631269 448.55868195 46.0125594 459.87231445 46.02758789 C461.42202978 46.0296517 461.42202978 46.0296517 463.00305248 46.0317572 C479.7740958 46.05372421 496.54513155 46.06445447 513.31618672 46.07195864 C530.55620328 46.08002804 547.79615515 46.10330576 565.03613478 46.13991231 C575.66031649 46.16192679 586.2843652 46.17160522 596.90856857 46.16541197 C604.18217309 46.16223875 611.45566383 46.17355838 618.72923314 46.19630639 C622.92473676 46.20897633 627.11998684 46.21514106 631.31550026 46.20388985 C635.15759857 46.1937185 638.9992047 46.20197597 642.84124488 46.22475281 C644.22921282 46.22974484 645.61722501 46.22802343 647.00517141 46.21882013 C657.58213224 46.154211 664.50709479 47.82813889 672.46972656 55.04541016 C679.75983086 62.78003301 681.37572739 71.17144624 681.33198547 81.44735718 C681.33581102 82.40662286 681.33963657 83.36588855 681.34357804 84.35422289 C681.35387255 87.55912148 681.3499226 90.76383972 681.34594727 93.96875 C681.3502957 96.27042303 681.35547929 98.57209461 681.36143494 100.87376404 C681.37482209 107.11963871 681.3754039 113.36545287 681.37287164 119.61133909 C681.37180172 124.82755095 681.37668584 130.04375058 681.38147706 135.25995982 C681.39320549 148.27054501 681.39234772 161.28109574 681.38592025 174.29168315 C681.38075216 185.57898096 681.39200492 196.86619245 681.41101847 208.15347318 C681.43041185 219.75558499 681.43835902 231.35765228 681.43489522 242.95978034 C681.43308272 249.468542 681.43571529 255.9772246 681.44960976 262.48597336 C681.46218869 268.60749877 681.46024318 274.72885145 681.44719887 280.85037422 C681.44483369 283.09450527 681.44756565 285.33864847 681.45582199 287.58276558 C681.46629586 290.65135464 681.45818327 293.71936484 681.44551086 296.78793335 C681.45288515 297.67131579 681.46025943 298.55469823 681.46785718 299.46484983 C681.38491193 309.0432399 678.36531151 318.23598392 671.62597656 325.24853516 C665.02241146 331.03961974 659.25670747 332.23145822 650.78814697 332.42404175 C649.74364325 332.45714569 648.69913952 332.49024963 647.62298417 332.52435672 C633.74291901 332.91463824 619.85498033 332.88692964 605.97063518 332.87535357 C601.87671804 332.87305501 597.78280485 332.87660069 593.68888855 332.8793335 C585.70709815 332.88374184 577.72531724 332.88283735 569.74352649 332.87992086 C563.25440394 332.87764913 556.76528403 332.87736191 550.27616119 332.87844467 C548.88329074 332.87867452 548.88329074 332.87867452 547.46228148 332.87890901 C545.57519807 332.87922878 543.68811467 332.87955299 541.80103126 332.87988161 C524.1788862 332.88272142 506.55674637 332.879472 488.93460217 332.87408124 C473.83644441 332.86960566 458.73829434 332.87039824 443.64013672 332.875 C426.05621281 332.88035697 408.47229346 332.88245619 390.88836884 332.87938774 C389.01245515 332.87906922 387.13654145 332.87875485 385.26062775 332.87844467 C384.33789084 332.8782904 383.41515393 332.87813612 382.46445529 332.87797717 C375.9821389 332.87711605 369.49982541 332.87856597 363.01750946 332.88092422 C355.12025902 332.8837345 347.22301852 332.8829577 339.32576922 332.87764348 C335.30193077 332.87502442 331.27810886 332.87397099 327.25427055 332.87729263 C323.56484541 332.88029215 319.875452 332.87860249 316.1860297 332.87331508 C314.23359113 332.87168512 312.28115032 332.87491548 310.32871413 332.87837231 C286.38262032 332.82558654 286.38262032 332.82558654 276.71582031 323.46337891 C269.97180424 316.34409962 264.25237619 308.46008043 258.43603516 300.58496094 C248.86298201 287.21376301 248.86298201 287.21376301 234.5676775 280.20986652 C229.92690038 279.59235387 225.36815418 279.60490951 220.6915741 279.61332703 C219.12532531 279.61015346 219.12532531 279.61015346 217.52743512 279.60691577 C214.02926586 279.60092521 210.53113276 279.60191525 207.03295898 279.6027832 C204.5245406 279.59975111 202.01612276 279.59622952 199.50770569 279.59225464 C194.10574938 279.58436958 188.70380066 279.57920189 183.30183983 279.57596397 C174.75901181 279.57045748 166.2162235 279.55355015 157.67341614 279.53462219 C154.74835116 279.52826594 151.82328609 279.52195744 148.89822102 279.51564503 C148.16726772 279.51406126 147.43631442 279.5124775 146.68321102 279.51084575 C138.3681559 279.49291981 130.05309798 279.47668802 121.73803711 279.46166992 C120.97819353 279.46029405 120.21834995 279.45891818 119.43548081 279.45750061 C107.12321138 279.43557229 94.81095223 279.42481415 82.49866673 279.41729917 C69.84789844 279.40922187 57.19721809 279.385913 44.54650003 279.34934551 C36.74894399 279.32735017 28.95156893 279.31764671 21.15398345 279.32384584 C15.17531538 279.32740221 9.19689209 279.31012493 3.21826744 279.28516769 C0.76935283 279.27825005 -1.679592 279.27813546 -4.12850571 279.28536797 C-7.47536679 279.29425331 -10.82126227 279.2785662 -14.16804504 279.25688171 C-15.13381952 279.26532425 -16.09959399 279.27376679 -17.09463435 279.28246516 C-25.98511406 279.17617911 -34.4213771 275.98280295 -40.92871094 269.74462891 C-45.32191256 264.50330247 -45.50578619 260.36992201 -45.45683289 253.66862488 C-45.46518955 252.65712744 -45.47354621 251.64562999 -45.4821561 250.60348111 C-45.50512677 247.21567981 -45.49952003 243.82853946 -45.49389648 240.44067383 C-45.5042284 238.01106539 -45.51621701 235.58146351 -45.52973938 233.15187073 C-45.55758612 227.23804409 -45.56638964 221.32437696 -45.56516387 215.41050168 C-45.56433084 210.60187067 -45.57019887 205.79329354 -45.58078957 200.98467445 C-45.61346193 185.85616744 -45.62245383 170.72782631 -45.61369983 155.59928916 C-45.60771988 143.67483807 -45.63810451 131.75079836 -45.68532255 119.82644983 C-45.73346224 107.57345819 -45.7554939 95.32066448 -45.75001174 83.06757623 C-45.74743808 76.1920243 -45.75536992 69.31686631 -45.79108238 62.44139671 C-45.82441031 55.97419092 -45.82123767 49.50763372 -45.79363823 43.04039574 C-45.78918095 40.66886553 -45.79663985 38.29727799 -45.81698227 35.92583084 C-45.84290841 32.68339919 -45.82549783 29.443934 -45.79740906 26.20158386 C-45.81507047 25.26693698 -45.83273188 24.33229009 -45.85092849 23.36932057 C-45.7139908 16.03914641 -42.99584771 11.92365891 -37.92871094 6.74462891 C-27.88285419 -2.32972607 -12.5282966 -0.08073823 0 0 Z " fill="#ACACAC" transform="translate(44.9287109375,7.25537109375)"/>
<path d="M0 0 C2.63904426 -0.00486053 5.27798758 -0.01207205 7.91700745 -0.02212524 C14.31909213 -0.04101918 20.72072325 -0.027976 27.12277403 -0.00359936 C34.58602804 0.02375162 42.04917614 0.0203554 49.51246753 0.01613398 C62.83050728 0.00976666 76.14833246 0.033021 89.46630859 0.07226562 C102.37685676 0.1102994 115.28715372 0.12443123 128.19775391 0.11328125 C142.27746244 0.10115746 156.35706078 0.10153242 170.43676019 0.12425292 C171.93869797 0.12666737 173.44063576 0.12907934 174.94257355 0.1314888 C175.68145366 0.13269588 176.42033377 0.13390295 177.18160419 0.13514661 C182.37925835 0.14289314 187.57687137 0.14212239 192.7745285 0.13831711 C199.77113875 0.1336226 206.76742132 0.15077387 213.76395988 0.1824379 C216.33101252 0.19092047 218.89809785 0.19262677 221.46515846 0.1870575 C224.96969943 0.18060784 228.47327995 0.19879066 231.97772217 0.22323608 C232.99289909 0.21567744 234.00807601 0.20811879 235.05401587 0.20033109 C246.61551718 0.34295306 253.07484393 5.82594499 261.07128906 13.74462891 C268.07128906 21.06904958 268.07128906 21.06904958 268.07128906 23.74462891 C268.87566406 24.08494141 268.87566406 24.08494141 269.69628906 24.43212891 C274.77734712 27.24008204 278.01123799 30.56382727 281.32128906 35.24462891 C285.19643444 40.29916636 289.00937248 42.83752692 295.07128906 44.74462891 C297.36486568 45.02997865 299.67011116 45.2290813 301.97757816 45.36142254 C302.63214339 45.39903845 303.28670862 45.43665436 303.96110917 45.47541014 C310.9953039 45.84842321 318.02776731 45.88534993 325.07066345 45.87593079 C326.51746364 45.87763839 327.96426336 45.87979053 329.4110623 45.88234204 C332.52595506 45.88689321 335.64082807 45.88836902 338.75572395 45.88737679 C343.82621145 45.88576848 348.89667967 45.89101872 353.96716309 45.89700317 C361.32680696 45.90507926 368.68644742 45.91004695 376.04609489 45.91329384 C387.68101825 45.91881392 399.31591268 45.93573253 410.95082092 45.95463562 C414.93815131 45.96099054 418.92548178 45.96729914 422.91281223 45.97361279 C423.90895388 45.97519655 424.90509553 45.97678031 425.93142329 45.97841207 C437.24505162 45.99631269 448.55868195 46.0125594 459.87231445 46.02758789 C461.42202978 46.0296517 461.42202978 46.0296517 463.00305248 46.0317572 C479.7740958 46.05372421 496.54513155 46.06445447 513.31618672 46.07195864 C530.55620328 46.08002804 547.79615515 46.10330576 565.03613478 46.13991231 C575.66031649 46.16192679 586.2843652 46.17160522 596.90856857 46.16541197 C604.18217309 46.16223875 611.45566383 46.17355838 618.72923314 46.19630639 C622.92473676 46.20897633 627.11998684 46.21514106 631.31550026 46.20388985 C635.15759857 46.1937185 638.9992047 46.20197597 642.84124488 46.22475281 C644.22921282 46.22974484 645.61722501 46.22802343 647.00517141 46.21882013 C654.83071837 46.17101795 660.38498102 46.52703585 667.07128906 50.74462891 C667.78800781 51.19064453 668.50472656 51.63666016 669.24316406 52.09619141 C674.27514532 56.15665153 676.05300766 60.71148664 678.07128906 66.74462891 C678.40128906 67.40462891 678.73128906 68.06462891 679.07128906 68.74462891 C679.14323775 71.62833224 679.16420614 74.48702554 679.13378906 77.36962891 C679.12927734 78.17142578 679.12476563 78.97322266 679.12011719 79.79931641 C679.10832074 81.78111897 679.09038511 83.76288324 679.07128906 85.74462891 C677.91148216 83.44969184 676.80832515 81.15609062 675.75878906 78.80712891 C672.34155987 72.60549073 666.17394996 67.37745201 659.33474982 65.18894601 C656.48204577 64.62896051 653.79967879 64.61979253 650.89107323 64.61993027 C648.97599325 64.61634384 648.97599325 64.61634384 647.02222478 64.61268497 C645.60241201 64.6150635 644.18259937 64.6175235 642.76278687 64.62005615 C641.25678429 64.61907007 639.75078195 64.61763306 638.24478018 64.61578298 C634.96639647 64.61272108 631.68803305 64.6128337 628.4096489 64.61533928 C623.07560438 64.61939559 617.74157579 64.61663154 612.40753174 64.61299133 C605.66705021 64.60889912 598.92657225 64.60666166 592.18608947 64.60657534 C578.93781506 64.60637267 565.68957728 64.59391645 552.4413147 64.57696533 C550.35598768 64.57435952 548.27066065 64.57176071 546.18533361 64.56916881 C543.0247916 64.56523031 539.86424959 64.5612838 536.70370763 64.55730759 C524.78473231 64.54235801 512.86575587 64.52873544 500.94677734 64.51660156 C499.85709745 64.515488 498.76741755 64.51437444 497.64471705 64.51322713 C479.99163804 64.49565709 462.33858196 64.49278268 444.68549566 64.49445197 C426.5621425 64.49573125 408.43887464 64.47798874 390.31555426 64.443434 C379.13700782 64.42278597 367.95866569 64.41744517 356.78010841 64.43176231 C349.11671033 64.44022519 341.45347102 64.43047983 333.79010646 64.4064528 C329.3695803 64.39315305 324.94943503 64.38794395 320.52891159 64.40457344 C316.47832919 64.41964253 312.42846362 64.41155467 308.37794371 64.3854039 C306.91625929 64.37999989 305.45451376 64.38295156 303.99287169 64.39532086 C293.29440238 64.47917801 286.55303686 62.53968507 277.82128906 56.49462891 C275.0058617 53.67920155 273.09502709 50.89177848 270.97363281 47.54931641 C268.49017393 43.88787189 265.77162291 40.44796121 263.00878906 36.99462891 C262.24864502 36.0377417 262.24864502 36.0377417 261.47314453 35.06152344 C259.17314204 32.20280983 256.88311354 29.55933229 254.26269531 26.97900391 C252.07128906 24.74462891 252.07128906 24.74462891 251.07128906 21.74462891 C248.26752555 20.61513669 248.26752555 20.61513669 245.07128906 19.74462891 C244.39647901 19.40053104 243.72166895 19.05643318 243.0264101 18.70190811 C238.55664376 17.25397609 234.20910175 17.46989629 229.53935242 17.49066162 C228.46675055 17.48754164 227.39414868 17.48442166 226.28904372 17.48120713 C222.68865257 17.47321882 219.08842957 17.47955419 215.48803711 17.48583984 C212.90917868 17.48313031 210.33032103 17.47956959 207.75146484 17.47521973 C201.46955361 17.46632424 195.18769017 17.46824869 188.90577706 17.47404501 C183.79869513 17.47856209 178.69162658 17.4791742 173.58454323 17.47699738 C172.85761045 17.47669091 172.13067768 17.47638444 171.38171664 17.47606869 C169.90491916 17.47542923 168.42812168 17.47478081 166.9513242 17.47412351 C153.10064592 17.46841945 139.2499941 17.47497867 125.39932016 17.48572424 C113.52148988 17.49465417 101.64369871 17.49311247 89.76586914 17.48388672 C75.96934373 17.47317568 62.17284154 17.46897473 48.37631255 17.47511125 C46.90403577 17.47574833 45.43175898 17.47637707 43.95948219 17.47699738 C42.87294165 17.4774602 42.87294165 17.4774602 41.76445078 17.47793238 C36.66657181 17.47965724 31.5687076 17.4767486 26.47083092 17.47203827 C19.60328095 17.46583229 12.73580595 17.47027225 5.86826324 17.48182678 C3.34796839 17.48447062 0.82766733 17.483713 -1.69262505 17.47930145 C-5.1337749 17.47383363 -8.57468854 17.48069554 -12.01582336 17.49066162 C-13.51073247 17.48396946 -13.51073247 17.48396946 -15.03584176 17.4771421 C-22.27118807 17.51776299 -29.32871506 17.87572469 -35.17871094 22.61962891 C-35.80261719 23.11205078 -36.42652344 23.60447266 -37.06933594 24.11181641 C-39.11365823 25.9070406 -41.02647111 27.80030413 -42.92871094 29.74462891 C-43.00968324 27.30646306 -43.06918065 24.87098507 -43.11621094 22.43212891 C-43.14134766 21.74183594 -43.16648438 21.05154297 -43.19238281 20.34033203 C-43.26757287 15.15221777 -43.26757287 15.15221777 -41.54199219 13.07666016 C-41.00960937 12.63708984 -40.47722656 12.19751953 -39.92871094 11.74462891 C-39.65834141 10.9595162 -39.38797188 10.1744035 -39.10940933 9.3654995 C-37.17362567 5.06851858 -34.29940994 3.88241247 -30.12004852 1.95430374 C-20.69928069 -1.23667165 -9.79591955 -0.06312951 0 0 Z " fill="#E2D0D0" transform="translate(44.9287109375,7.25537109375)"/>
<path d="M0 0 C1.01062419 0.31727863 2.02124839 0.63455726 3.06249756 0.9614504 C13.75987355 4.00668907 25.96941715 3.1460533 36.99937439 3.13130188 C38.44617458 3.13300948 39.89297429 3.13516163 41.33977324 3.13771313 C44.45466599 3.1422643 47.56953901 3.14374011 50.68443489 3.14274788 C55.75492238 3.14113958 60.82539061 3.14638981 65.89587402 3.15237427 C73.2555179 3.16045035 80.61515835 3.16541805 87.97480583 3.16866493 C99.60972918 3.17418502 111.24462362 3.19110362 122.87953186 3.21000671 C126.86686225 3.21636163 130.85419271 3.22267023 134.84152317 3.22898388 C135.83766482 3.23056764 136.83380647 3.2321514 137.86013423 3.23378316 C149.17376256 3.25168379 160.48739289 3.26793049 171.80102539 3.28295898 C172.83416894 3.28433486 173.86731249 3.28571073 174.93176342 3.28712829 C191.70280674 3.3090953 208.47384249 3.31982557 225.24489766 3.32732973 C242.48491421 3.33539913 259.72486609 3.35867685 276.96484572 3.3952834 C287.58902742 3.41729789 298.21307614 3.42697631 308.83727951 3.42078307 C316.11088403 3.41760984 323.38437476 3.42892947 330.65794408 3.45167748 C334.85344769 3.46434743 339.04869778 3.47051216 343.2442112 3.45926094 C347.08630951 3.44908959 350.92791564 3.45734706 354.76995582 3.4801239 C356.15792376 3.48511593 357.54593594 3.48339452 358.93388235 3.47419123 C366.7398814 3.42650846 372.32428107 3.78662237 379 8 C376.13822943 9.43088528 374.06624227 8.59991697 371 8 C371 7.34 371 6.68 371 6 C370.23494078 5.99940291 369.46988155 5.99880582 368.68163872 5.99819064 C323.34650258 5.96230329 278.01143308 5.90567447 232.67635852 5.82207905 C227.23394632 5.81206149 221.79153381 5.80221738 216.34912109 5.79248047 C215.26562642 5.7905391 214.18213174 5.78859772 213.06580389 5.78659752 C195.51782541 5.75556929 177.96986001 5.73859457 160.42185926 5.72680578 C142.41842572 5.71439849 124.41506087 5.68690662 106.41167068 5.64538693 C95.30098101 5.62023948 84.19040524 5.60688364 73.0796867 5.60857043 C65.46252962 5.60860016 57.84548865 5.5939888 50.22837681 5.56783572 C45.83248472 5.55317583 41.43683075 5.54499875 37.04091835 5.55419731 C33.01502988 5.56247908 28.98962003 5.55234386 24.96380258 5.52766338 C23.50876791 5.52197564 22.05368794 5.52300164 20.59866691 5.53148755 C12.63981047 5.5739214 6.79419618 5.34228363 0 1 C0 0.67 0 0.34 0 0 Z " fill="#413E39" transform="translate(333,50)"/>
<path d="M0 0 C5.37992836 0.33990833 9.53273547 0.68557793 14 4 C11.13822943 5.43088528 9.06624227 4.59991697 6 4 C6 3.34 6 2.68 6 2 C3.03 1.505 3.03 1.505 0 1 C0 0.67 0 0.34 0 0 Z " fill="#514B4B" transform="translate(698,54)"/>
<path d="M0 0 C3.36720387 1.39332574 4.9859524 2.9789286 7 6 C5 7 5 7 2.4375 6.3125 C0 5 0 5 -0.875 2.9375 C-0.91625 2.298125 -0.9575 1.65875 -1 1 C-0.67 0.67 -0.34 0.34 0 0 Z " fill="#BFB1B2" transform="translate(329,47)"/>
<path d="M0 0 C1.9375 0.8125 1.9375 0.8125 4 2 C4.33 2.99 4.66 3.98 5 5 C3.35 4.67 1.7 4.34 0 4 C0 2.68 0 1.36 0 0 Z " fill="#9C9C9C" transform="translate(687,93)"/>
</svg>
